<mxfile host="app.diagrams.net" modified="2023-10-17T04:55:17.242Z" agent="Mozilla/5.0 (Macintosh; Intel Mac OS X 10_15_7) AppleWebKit/537.36 (KHTML, like Gecko) Chrome/118.0.0.0 Safari/537.36" version="22.0.4" etag="Rim7vn1L1xAvUxrhcL5h" type="github">
  <diagram name="第 1 页" id="A6P0WP1tQKVxjTYPJzn7">
    <mxGraphModel>
      <root>
        <mxCell id="0" />
        <mxCell id="1" parent="0" />
      </root>
    </mxGraphModel>
  </diagram>
</mxfile>
